# xmcd
#
# Track frame offsets:
# 150
# 14193
# 27588
# 44173
# 64525
#
# Disc length: 1098 seconds
#
# Revision: 1
# Processed by: cddbd v1.5.2PL0 Copyright (c) Steve Scherf et al.
# Submitted via: CedeCatalogueitor 2.6.0.6 http://personales.ya.com/cdcatalogueitor
#
DISCID=47044805
DTITLE=Daedelus - Fair Weather Friends
DYEAR=1900
DGENRE=
TTITLE0=Fair Weather Firends
TTITLE1=My Beaur
TTITLE2=Hermitage
TTITLE3=El Subidon
TTITLE4=Bonjour
EXTD=
EXTT0=
EXTT1=
EXTT2=
EXTT3=
EXTT4=
PLAYORDER=
